<?xml version="1.0" ?><!DOCTYPE svg  PUBLIC '-//W3C//DTD SVG 1.1//EN'  'http://www.w3.org/Graphics/SVG/1.1/DTD/svg11.dtd'><svg enable-background="new 0 0 512 512" height="512px" id="Layer_1" version="1.1" viewBox="0 0 512 512" width="512px" xml:space="preserve" xmlns="http://www.w3.org/2000/svg" xmlns:xlink="http://www.w3.org/1999/xlink"><g><path d="M112,400c0,17.672-14.328,32-32,32s-32-14.328-32-32s14.328-32,32-32S112,382.328,112,400z M24,432   c-13.25,0-24,10.734-24,24s10.75,24,24,24s24-10.734,24-24S37.25,432,24,432z M463.906,137.656   c0.031-0.563,0.094-1.094,0.094-1.656c0-48.594-39.406-88-88-88c-19.563,0-37.563,6.469-52.188,17.266   C307.406,35.891,276.031,16,240,16c-43.5,0-80.195,28.969-91.984,68.625C139.203,81.672,129.805,80,120,80   c-48.594,0-88,39.406-88,88c0,25.031,10.516,47.594,27.305,63.609C52.297,243.5,48,257.188,48,272c0,44.188,35.82,80,80,80   c8.328,0,16.203-1.625,23.758-4c13.773,30.625,44.484,52,80.242,52c26.063,0,49.391-11.391,65.5-29.391   C311,379.047,326.906,384,344,384c46.031,0,83.75-35.359,87.625-80.375C476.641,299.75,512,262.031,512,216   C512,181.781,492.438,152.203,463.906,137.656z M288,288c0,10.328-10.742,17.594-24,17.594s-24-7.922-24-17.594v-16h48V288z    M308.023,218.344C301.289,228.875,288.883,241.875,288,256h-48c-0.898-14.109-13.258-27.125-19.992-37.656   c-7.086-11.047-14.406-22.484-14.406-39.109c0-29.328,25.93-52.828,58.406-52.828c32.5,0,58.392,23.5,58.392,52.828   C322.398,195.859,315.086,207.297,308.023,218.344z" fill="#4D4D4D"/></g></svg>