<?xml version="1.0" encoding="utf-8"?>
<!-- Generator: Adobe Illustrator 17.0.2, SVG Export Plug-In . SVG Version: 6.00 Build 0)  -->
<!DOCTYPE svg PUBLIC "-//W3C//DTD SVG 1.1//EN" "http://www.w3.org/Graphics/SVG/1.1/DTD/svg11.dtd">
<svg version="1.1" id="Capa_1" xmlns="http://www.w3.org/2000/svg" xmlns:xlink="http://www.w3.org/1999/xlink" x="0px" y="0px"
	 width="64px" height="64px" viewBox="0 0 64 64" enable-background="new 0 0 64 64" xml:space="preserve">
<g>
	<path d="M62.682,41.198l-4.636-1.191l1.14-0.669c0.349-0.205,0.541-0.6,0.484-1.002c-0.018-0.132-0.07-0.25-0.134-0.36
		c0.111-0.19,0.166-0.412,0.134-0.64c-0.056-0.401-0.349-0.729-0.741-0.829l-0.268-0.069l1.454-0.853
		c0.349-0.205,0.541-0.6,0.484-1.002c-0.018-0.132-0.07-0.25-0.134-0.36c0.111-0.19,0.166-0.412,0.134-0.64
		c-0.056-0.401-0.349-0.729-0.741-0.829l-0.697-0.179l1.931-1.133c0.349-0.205,0.541-0.6,0.484-1.002
		c-0.018-0.132-0.07-0.25-0.134-0.36c0.111-0.19,0.166-0.412,0.134-0.64c-0.056-0.401-0.349-0.729-0.741-0.829L59.9,28.37
		l1.162-0.682c0.349-0.205,0.541-0.6,0.484-1.002c-0.018-0.132-0.07-0.25-0.134-0.36c0.111-0.19,0.166-0.412,0.134-0.64
		c-0.056-0.401-0.349-0.729-0.741-0.829l-2.074-0.533l2.208-1.295c0.349-0.205,0.541-0.6,0.484-1.002
		c-0.018-0.132-0.07-0.25-0.134-0.36c0.111-0.19,0.166-0.412,0.134-0.64c-0.056-0.401-0.349-0.729-0.741-0.829l-1.365-0.351
		l0.869-0.51c0.349-0.205,0.541-0.6,0.484-1.002c-0.018-0.132-0.07-0.25-0.134-0.36c0.111-0.19,0.166-0.412,0.134-0.64
		c-0.056-0.401-0.349-0.729-0.741-0.829l-3.334-0.857l3.52-2.065c0.349-0.205,0.541-0.6,0.484-1.002
		c-0.018-0.132-0.07-0.25-0.134-0.36c0.111-0.19,0.166-0.412,0.134-0.64c-0.056-0.401-0.349-0.729-0.741-0.829L22.587,1.175
		c-0.082-0.021-0.166-0.031-0.249-0.031c-0.149,0-0.297,0.033-0.433,0.099L6.769,8.52C6.397,8.699,6.173,9.088,6.205,9.5
		C6.217,9.65,6.272,9.787,6.344,9.912c-0.103,0.174-0.155,0.377-0.138,0.587c0.032,0.411,0.314,0.761,0.71,0.88l3.66,1.098
		L6.84,14.273c-0.372,0.179-0.596,0.568-0.564,0.979c0.012,0.151,0.066,0.287,0.138,0.413c-0.103,0.174-0.155,0.377-0.138,0.587
		c0.028,0.359,0.253,0.661,0.571,0.814l-3.819,1.837c-0.372,0.179-0.596,0.568-0.564,0.98c0.012,0.151,0.066,0.287,0.138,0.413
		c-0.103,0.174-0.155,0.377-0.138,0.587c0.032,0.411,0.314,0.761,0.71,0.88l4.13,1.239c-0.11,0.177-0.168,0.386-0.151,0.603
		c0.012,0.151,0.066,0.287,0.138,0.413c-0.103,0.174-0.155,0.377-0.138,0.587c0.032,0.412,0.314,0.761,0.71,0.88l1.073,0.322
		l-1.19,0.572c-0.372,0.179-0.596,0.568-0.564,0.98c0.012,0.151,0.066,0.287,0.138,0.413c-0.103,0.174-0.155,0.377-0.138,0.587
		c0.032,0.412,0.314,0.761,0.71,0.88l0.953,0.286L6.769,30.52c-0.372,0.179-0.596,0.568-0.564,0.98
		c0.012,0.151,0.066,0.287,0.138,0.413c-0.103,0.174-0.155,0.377-0.138,0.587c0.032,0.411,0.314,0.761,0.71,0.88l0.483,0.145
		L5.84,34.273c-0.372,0.179-0.596,0.568-0.564,0.979c0.012,0.151,0.066,0.287,0.138,0.413c-0.103,0.174-0.155,0.377-0.138,0.587
		c0.032,0.412,0.314,0.761,0.71,0.88l1.111,0.333l-5.069,2.438c-0.372,0.179-0.596,0.568-0.564,0.98
		c0.012,0.151,0.066,0.287,0.138,0.413c-0.103,0.174-0.155,0.377-0.138,0.587c0.032,0.411,0.314,0.761,0.71,0.88l5.798,1.739
		l-0.255,0.123c-0.372,0.179-0.596,0.568-0.564,0.979c0.012,0.151,0.066,0.287,0.138,0.413c-0.103,0.174-0.155,0.377-0.138,0.587
		c0.032,0.412,0.314,0.761,0.71,0.88l1.073,0.322l-1.19,0.572c-0.372,0.179-0.596,0.568-0.564,0.98
		c0.012,0.151,0.066,0.287,0.138,0.413c-0.103,0.174-0.155,0.377-0.138,0.587c0.032,0.411,0.314,0.761,0.71,0.88l37.271,11.18
		c0.094,0.028,0.191,0.042,0.287,0.042c0.176,0,0.351-0.047,0.506-0.138l15.136-8.879c0.349-0.205,0.541-0.6,0.484-1.002
		c-0.018-0.132-0.07-0.25-0.134-0.36c0.111-0.19,0.166-0.412,0.134-0.64c-0.056-0.401-0.349-0.729-0.741-0.829L59.9,50.37
		l1.162-0.682c0.349-0.205,0.541-0.6,0.484-1.002c-0.018-0.132-0.07-0.25-0.134-0.36c0.111-0.19,0.166-0.412,0.134-0.64
		c-0.056-0.401-0.349-0.729-0.741-0.829l-1.869-0.48l4.002-2.348c0.349-0.205,0.541-0.6,0.484-1.002
		c-0.018-0.132-0.07-0.25-0.134-0.36c0.111-0.19,0.166-0.412,0.134-0.64C63.367,41.626,63.075,41.298,62.682,41.198z M60.013,51.915
		l-0.612,0.359l-13.95,8.184L9.46,49.663l-0.711-0.213l-0.57-0.171l2.178-1.047l0.668-0.321l0.613-0.294l0.57,0.171L12.918,48
		l32.215,9.663c0.094,0.028,0.191,0.042,0.287,0.042h0c0.176,0,0.351-0.047,0.506-0.137l10.379-6.089l0.612-0.359l0.574-0.336
		l0.498,0.128l0.688,0.177l1.91,0.491L60.013,51.915z M59.984,48.162l-0.612,0.359l-2.031,1.191l-0.612,0.359l-0.573,0.336
		l-0.039,0.023l-0.574,0.336l-0.612,0.359l-9.51,5.579l-31.166-9.348l-0.711-0.213l-0.57-0.171l-0.14-0.042l-0.57-0.171l-0.71-0.213
		L9.43,45.909L8.72,45.696l-0.57-0.171l1.243-0.598l0.669-0.322l0.612-0.294l0.57,0.171l0.711,0.213l2.123,0.637l0.71,0.213
		l0.57,0.171l0.14,0.042l0.57,0.171l0.711,0.213l22.666,6.799c0.094,0.028,0.191,0.042,0.287,0.042h0
		c0.176,0,0.351-0.047,0.506-0.138l2.114-1.24l0.589-0.345l0.539-0.316l0.474,0.142l0.654,0.196l2.402,0.721
		c0.094,0.028,0.191,0.042,0.287,0.042h0c0.176,0,0.351-0.047,0.506-0.138l3.099-1.818l0.612-0.359l0.574-0.336l0.038-0.023
		l0.573-0.336l0.612-0.359l2.031-1.191l0.612-0.359l0.573-0.336l0.498,0.128l0.687,0.177l2.844,0.731L59.984,48.162z M2.461,40.804
		l6.057-2.912l0.668-0.321l0.612-0.294l0.57,0.171l0.711,0.213l0.755,0.227l-0.612,0.294l-0.668,0.321l-0.961,0.462
		c-0.372,0.179-0.596,0.568-0.564,0.98c0.012,0.151,0.066,0.287,0.138,0.413c0.093,0.163,0.228,0.295,0.397,0.384
		c0.057,0.03,0.111,0.064,0.174,0.082l3.621,1.086l0.71,0.213l0.57,0.171l0.14,0.042l0.57,0.171l0.711,0.213l2.123,0.637l0.71,0.213
		l0.57,0.171l0.14,0.042l0.57,0.171l0.711,0.213l21.285,6.384l-0.539,0.316l-0.589,0.345l-1.312,0.77L18.116,45.5l-0.711-0.213
		l-0.57-0.171l-0.14-0.042l-0.57-0.171l-0.71-0.213l-2.123-0.637l-0.711-0.213l-0.57-0.171l-0.14-0.042l-0.57-0.171l-0.71-0.213
		l-6.848-2.054l-0.711-0.213L2.461,40.804z M6.273,35.175l2.546-1.224l0.668-0.321l0.612-0.294l0.57,0.171l0.71,0.213l2.161,0.648
		l0.71,0.213l0.57,0.171l0.14,0.042l0.57,0.171l0.711,0.213l0.755,0.227l0.71,0.213l0.57,0.171l0.14,0.042l0.57,0.171l0.711,0.213
		l3.505,1.051l10.36,3.107l10.621,3.186c0.094,0.028,0.191,0.042,0.287,0.042h0c0.176,0,0.351-0.047,0.506-0.138l0.186-0.109
		l0.612-0.359l1.454-0.853l0.612-0.359l0.573-0.336l0.039-0.023l0.573-0.336l0.612-0.359l1.008-0.591l0.612-0.359l0.573-0.336
		l0.039-0.023l0.574-0.337l0.612-0.359l2.008-1.178l0.612-0.359l0.573-0.336l0.498,0.128l0.687,0.177l1.243,0.319l-0.573,0.336
		l-0.612,0.359l-2.008,1.178l-0.612,0.359l-0.574,0.337l-0.038,0.023l-0.573,0.336l-0.612,0.359l-1.008,0.591l-0.612,0.359
		l-0.573,0.336l-0.039,0.023l-0.573,0.336l-0.612,0.359l-1.454,0.853l-0.612,0.359l-0.573,0.336l-0.039,0.023l-0.573,0.336
		l-0.612,0.359l-2.031,1.191l-0.222,0.13l-4.361-1.308l-17.217-5.164l-0.711-0.213l-0.57-0.171l-0.14-0.042l-0.57-0.171
		l-0.711-0.213l-3.391-1.017l-0.711-0.213l-0.57-0.171l-0.14-0.042l-0.57-0.171l-0.711-0.213l-0.755-0.227l-0.711-0.213l-0.57-0.171
		l-0.14-0.042l-0.57-0.171l-0.71-0.213l-2.161-0.648l-0.71-0.213L6.273,35.175z M7.202,31.421l3.064-1.473l0.669-0.322l0.612-0.294
		l0.57,0.171l0.711,0.213l1.533,0.46l0.711,0.213l0.57,0.171l0.14,0.042l0.57,0.171l0.711,0.213l5.618,1.685l0.71,0.213l0.57,0.171
		l0.14,0.042l0.57,0.171l4.487,1.346l16.005,4.801c0.094,0.028,0.191,0.042,0.287,0.042c0.176,0,0.351-0.047,0.506-0.138l0.461-0.27
		l0.612-0.359l0.573-0.336l0.038-0.023l0.574-0.337l0.612-0.359l2.009-1.178l0.612-0.359l0.573-0.336l0.039-0.023l0.574-0.337
		l0.612-0.359l2.323-1.363l0.612-0.359l0.574-0.336l0.498,0.128l0.687,0.177l1.672,0.43l-0.574,0.336l-0.612,0.359l-2.323,1.363
		l-0.612,0.359l-0.574,0.337l-0.039,0.023l-0.573,0.336l-0.612,0.359l-2.009,1.178l-0.612,0.359l-0.574,0.337l-0.038,0.023
		l-0.573,0.336l-0.612,0.359l-1.008,0.591l-0.612,0.359l-0.573,0.336l-0.039,0.023L46.47,41.43l-0.612,0.359l-1.384,0.812
		l-23.436-7.03l-0.711-0.213l-0.57-0.171l-0.14-0.042l-0.57-0.171l-0.71-0.213l-0.755-0.227l-0.711-0.213l-0.57-0.171l-0.14-0.042
		l-0.57-0.171l-0.71-0.213l-2.161-0.648l-0.71-0.213l-0.57-0.171l-0.14-0.042l-0.57-0.171l-0.711-0.213l-1.533-0.46l-0.711-0.213
		L7.202,31.421z M8.179,27.278l2.178-1.047l0.668-0.321l0.613-0.294l0.57,0.171L12.918,26l2.003,0.601l0.71,0.213l0.57,0.171
		l0.14,0.042l0.57,0.171l0.711,0.213l1.533,0.46l0.71,0.213l0.57,0.171l0.14,0.042l0.57,0.171l8.415,2.524l15.572,4.671
		c0.094,0.028,0.191,0.042,0.287,0.042h0c0.176,0,0.351-0.047,0.506-0.137l0.438-0.257l0.612-0.359l0.573-0.336l0.039-0.023
		l0.574-0.337l0.612-0.359l2.323-1.363l0.612-0.359l0.573-0.336l0.039-0.023l0.573-0.336l0.612-0.359l2.799-1.642l0.612-0.359
		l0.574-0.336l0.498,0.128l0.688,0.177l1.91,0.491l-0.574,0.336l-0.612,0.359l-2.799,1.642l-0.612,0.359l-0.573,0.336l-0.039,0.023
		l-0.573,0.336l-0.612,0.359l-2.323,1.363l-0.612,0.359l-0.574,0.337l-0.039,0.023l-0.573,0.336l-0.612,0.359l-2.009,1.178
		l-0.612,0.359l-0.574,0.337l-0.038,0.023l-0.573,0.336l-0.204,0.12l-4.013-1.204l-11.254-3.376l-0.756-0.227l-4.7-1.41l-0.71-0.213
		l-5.618-1.685l-0.711-0.213l-0.57-0.171l-0.14-0.042l-0.57-0.171l-0.711-0.213l-1.533-0.46l-0.711-0.213l-0.57-0.171l-0.14-0.042
		l-0.57-0.171l-0.71-0.213L9.46,27.663l-0.711-0.213L8.179,27.278z M8.15,23.525l0.346-0.167l0.669-0.321l0.612-0.294l0.57,0.171
		l0.711,0.213l2.123,0.637l0.71,0.213l0.57,0.171l0.14,0.042l0.57,0.171l0.711,0.213l2.003,0.601l0.71,0.213l0.57,0.171l0.14,0.042
		l0.57,0.171l0.711,0.213l15.54,4.661l4.318,1.295c0.094,0.028,0.191,0.042,0.287,0.042h0c0.116,0,0.229-0.027,0.338-0.067
		c0.057-0.021,0.115-0.039,0.168-0.07l1.099-0.645l0.589-0.345l0.5-0.293l0.039-0.023l0.474,0.142l0.293,0.088l0.361,0.108
		l0.417,0.125c0.094,0.028,0.191,0.042,0.287,0.042h0c0.002,0,0.003-0.001,0.005-0.001c0.175-0.001,0.348-0.047,0.501-0.137
		l0.297-0.174l0.573-0.336l0.039-0.023l0.573-0.336l0.612-0.359l2.799-1.642l0.612-0.359l0.574-0.336l0.038-0.023l0.573-0.336
		l0.612-0.359l2.031-1.191l0.612-0.359l0.573-0.336l0.498,0.128l0.687,0.177l3.049,0.784l-0.573,0.336l-0.612,0.359l-2.031,1.191
		l-0.612,0.359l-0.573,0.336l-0.039,0.023l-0.574,0.337l-0.612,0.359l-2.799,1.642l-0.612,0.359l-0.573,0.336l-0.039,0.023
		l-0.573,0.336l-0.612,0.359l-2.323,1.362l-0.612,0.359l-0.574,0.337l-0.039,0.023l-0.573,0.336l-0.182,0.107l-3.581-1.074
		l-11.254-3.375l-0.756-0.227l-8.622-2.586l-0.716-0.215l-1.533-0.46l-0.711-0.213l-0.57-0.171l-0.14-0.042l-0.57-0.171l-0.71-0.213
		l-2.003-0.601l-0.711-0.213l-0.57-0.171l-0.14-0.042l-0.57-0.171l-0.71-0.213L9.43,23.909L8.72,23.696L8.15,23.525z M3.461,19.804
		l4.776-2.297l0.668-0.321l0.612-0.294l0.189,0.057l-0.612,0.295l-0.668,0.321l-0.833,0.401c-0.229,0.11-0.392,0.304-0.483,0.53
		c-0.057,0.141-0.093,0.291-0.08,0.449c0.004,0.045,0.021,0.086,0.03,0.13c0.022,0.101,0.058,0.195,0.108,0.283
		c0.093,0.163,0.228,0.295,0.397,0.384c0.057,0.03,0.111,0.064,0.174,0.082l3.572,1.072l0.71,0.213l0.57,0.171l0.14,0.042
		l0.57,0.171l0.711,0.213l2.123,0.637l0.71,0.213l0.57,0.171l0.14,0.042l0.57,0.171l0.711,0.213l2.003,0.601l0.711,0.213
		l0.674,0.202l0.036,0.011l9.957,2.987l9.939,2.981l-0.106,0.062l-0.433,0.254l-0.589,0.345l-0.297,0.174l-18.808-5.641
		l-0.711-0.213l-0.57-0.171l-0.14-0.042l-0.57-0.171l-0.711-0.213l-2.003-0.601l-0.711-0.213l-0.57-0.171l-0.14-0.042l-0.57-0.171
		l-0.71-0.213l-2.123-0.637l-0.711-0.213l-0.57-0.171l-0.14-0.042l-0.57-0.171l-0.71-0.213l-4.951-1.485l-0.711-0.213L3.461,19.804z
		 M7.273,15.175l4.723-2.271l0.668-0.321l0.612-0.294l0.57,0.171l0.71,0.213l0.88,0.264l0.71,0.213l0.57,0.171l0.14,0.042
		l0.189,0.057l0.381,0.114l0.329,0.099l0.382,0.114l0.189,0.057l0.14,0.042l0.57,0.171l0.711,0.213l3.456,1.037l10.36,3.107
		l10.621,3.186c0.094,0.028,0.191,0.042,0.287,0.042h0c0.176,0,0.351-0.047,0.506-0.138l0.186-0.109l0.612-0.359l0.573-0.336
		l0.612-0.359l0.573-0.336l0.039-0.023l0.573-0.336l0.612-0.359l0.094-0.055l0.612-0.359l0.573-0.336l0.039-0.023l0.574-0.337
		l0.612-0.359L53,16.758l0.612-0.359l0.573-0.336l0.498,0.128l0.687,0.177l4.309,1.107l-0.573,0.336l-0.612,0.359l-1.737,1.019
		l-0.612,0.359l-0.574,0.337l-0.039,0.023l-0.573,0.336l-0.612,0.359l-0.094,0.055l-0.612,0.359l-0.573,0.336l-0.039,0.023
		l-0.573,0.336l-0.612,0.359l-0.573,0.336l-0.612,0.359l-0.573,0.336l-0.038,0.023l-0.573,0.336l-0.612,0.359l-2.031,1.191
		l-0.612,0.359l-0.573,0.336l-0.038,0.023l-0.574,0.336l-0.491,0.288l-9.637-2.891l-11.261-3.378l-0.249-0.075l-0.775-0.232
		l-0.71-0.213l-2.123-0.637l-0.711-0.213l-0.57-0.171l-0.14-0.042l-0.57-0.171l-0.71-0.213l-3.341-1.002l-0.711-0.213l-0.57-0.171
		l-0.14-0.042l-0.189-0.057l-0.381-0.114l-0.329-0.099l-0.381-0.114l-0.189-0.057l-0.14-0.042l-0.57-0.171l-0.71-0.213l-0.88-0.264
		l-0.71-0.213L7.273,15.175z M59.86,21.502l-0.612,0.359l-2.394,1.404l-0.682,0.4l-0.612,0.359l-0.574,0.336l-0.039,0.023
		l-0.573,0.336l-0.612,0.359l-2.031,1.191L51.12,26.63l-0.573,0.336l-0.038,0.023l-0.574,0.336l-0.612,0.359l-2.799,1.642
		l-0.612,0.359l-0.573,0.336L45.3,30.044l-0.002,0.001l-0.041-0.012l-0.14-0.042l-0.474-0.142L44.5,29.806l-0.037-0.011
		l-0.474-0.142l-0.654-0.196L33.243,26.43l-10.934-3.28l-2.134-0.64l-0.711-0.213l-0.57-0.171l-0.14-0.042l-0.57-0.171l-0.71-0.213
		l-2.123-0.637L14.64,20.85l-0.57-0.171l-0.14-0.042l-0.57-0.171l-0.71-0.213L9.307,19.25l-0.711-0.213l-0.57-0.171l1.821-0.875
		l0.668-0.321l0.612-0.294l0.57,0.171l0.711,0.213l3.341,1.002l0.71,0.213l0.57,0.171l0.14,0.042l0.57,0.171l0.711,0.213
		l2.123,0.637l0.71,0.213l0.571,0.171l0.14,0.042l0.57,0.171l0.711,0.213l20.98,6.293c0.094,0.028,0.191,0.042,0.287,0.042h0
		c0.176,0,0.351-0.047,0.506-0.137l0.747-0.438l0.612-0.359l0.574-0.336l0.038-0.023l0.573-0.336l0.612-0.359l2.031-1.191
		l0.612-0.359l0.573-0.336l0.039-0.023l0.573-0.336l0.612-0.359l0.573-0.336l0.612-0.359l0.573-0.336l0.039-0.023l0.573-0.336
		l0.612-0.359l0.094-0.055l0.612-0.359l0.573-0.336l0.498,0.128l0.687,0.177l2.34,0.601L59.86,21.502z M61.86,42.502l-0.612,0.359
		l-4.871,2.857l-0.612,0.359l-0.574,0.336l-0.039,0.023l-0.573,0.336l-0.612,0.359l-2.031,1.191l-0.612,0.359l-0.573,0.336
		l-0.039,0.023l-0.574,0.336l-0.612,0.359l-2.231,1.309l-1.512-0.454l-0.654-0.196l-0.474-0.142l-0.18-0.054l-0.474-0.142
		l-0.654-0.196l-21.126-6.337l-0.711-0.213l-0.57-0.171l-0.14-0.042l-0.57-0.171l-0.71-0.213l-2.123-0.637l-0.711-0.213l-0.57-0.171
		l-0.14-0.042l-0.57-0.171l-0.71-0.213l-3.391-1.017l-0.711-0.213l-0.57-0.171l1.949-0.937l0.668-0.321l0.612-0.294l0.57,0.171
		l0.711,0.213l3.391,1.017l0.711,0.213l0.57,0.171l0.14,0.042l0.57,0.171l0.711,0.213l2.123,0.637l4.151,1.245l11.256,3.376
		l0.756,0.227l4.342,1.302c0.094,0.028,0.191,0.042,0.287,0.042h0c0.116,0,0.23-0.028,0.34-0.068
		c0.016-0.006,0.032-0.013,0.048-0.02c0.039-0.017,0.081-0.028,0.118-0.05l0.478-0.281l0.612-0.359l2.031-1.191l0.612-0.359
		l0.573-0.336l0.039-0.023l0.573-0.336l0.612-0.359l1.454-0.853l0.612-0.359l0.573-0.336l0.038-0.023l0.573-0.336l0.612-0.359
		l1.008-0.591l0.612-0.359l0.573-0.336l0.498,0.128l0.687,0.177l5.611,1.442L61.86,42.502z M59.609,11.722l-0.574,0.336
		l-0.612,0.359l-4.389,2.575l-0.612,0.359l-0.574,0.337l-0.039,0.023l-0.573,0.336l-0.612,0.359l-1.737,1.019l-0.612,0.359
		l-0.574,0.337l-0.038,0.023l-0.573,0.336l-0.612,0.359l-0.094,0.055l-0.612,0.359l-0.573,0.336l-0.039,0.023l-0.573,0.336
		l-0.612,0.359l-0.503,0.295l-9.883-2.964l-12.015-3.604l-1.488-0.446l-0.711-0.213l-0.57-0.171l-0.14-0.042l-0.57-0.171
		l-0.71-0.213l-0.189-0.057l-0.14-0.042l-0.57-0.171l-0.71-0.213l-0.88-0.264l-0.71-0.213l-0.57-0.171l-0.14-0.042l-0.57-0.171
		l-0.711-0.213l-4.71-1.413L7.772,9.592l-0.57-0.171l15.136-7.278L59.609,11.722z"/>
</g>
</svg>
