<?xml version="1.0" ?><!DOCTYPE svg  PUBLIC '-//W3C//DTD SVG 1.1//EN'  'http://www.w3.org/Graphics/SVG/1.1/DTD/svg11.dtd'><svg enable-background="new 0 0 60 60" height="60px" id="Layer_1" version="1.1" viewBox="0 0 60 60" width="60px" xml:space="preserve" xmlns="http://www.w3.org/2000/svg" xmlns:xlink="http://www.w3.org/1999/xlink"><g><path clip-rule="evenodd" d="M5.426,18.453c0,0,11.396,0.714,17.094,15.554c0.237,0,0.95-0.118,1.187-0.118   c0.357-0.122,0.832-0.24,1.307-0.475c-1.899-4.987-7.004-14.961-18.519-17.096l-0.594-0.122L5.426,18.453z" fill-rule="evenodd"/><path clip-rule="evenodd" d="M17.772,13.231c0,0,0.594-0.832,1.899-0.597   c0.712,5.819,4.273,14.961,6.886,20.066c-0.356,0.239-0.711,0.475-1.187,0.592c-0.12,0.121-0.239,0.121-0.475,0.239   C22.52,28.663,18.484,19.76,17.772,13.231L17.772,13.231z" fill-rule="evenodd" opacity="0.6"/><path clip-rule="evenodd" d="M25.963,9.786c0,0-5.817,8.789,2.136,21.49c-0.355,0.475-0.712,0.81-1.187,1.189   s-0.4,0.288-0.712,0.475c-4.511-6.891-6.647-16.979-2.256-24.104L25.963,9.786z" fill-rule="evenodd"/><path clip-rule="evenodd" d="M24.539,8.718c0,0,0.357-0.117,0.712-0.474c0-1.067,0.595-2.135,1.544-2.613   c0-0.235-0.12-0.471-0.12-0.95L27.15,4.92c0,0.118,0,0.354,0,0.475c0.237,0,0.357-0.122,0.595-0.122L28.1,5.63   c0.12,0-0.355,0-0.95,0.357c-0.237,0.95-0.593,2.021-1.424,2.491c0.12,0.239,0.12,0.597,0.238,0.836l-0.593-0.239   c0-0.118,0-0.239,0-0.357C25.131,8.718,24.896,8.718,24.539,8.718L24.539,8.718z M25.726,7.886c0.357-0.357,0.712-0.71,0.832-1.067   c0-0.239,0.118-0.475,0.118-0.592C26.201,6.58,25.846,7.059,25.726,7.886L25.726,7.886z" fill-rule="evenodd"/><path clip-rule="evenodd" d="M17.892,12.756c0,0,0.237-0.357,0.475-0.832c-0.712-0.95-0.832-2.017-0.357-2.966   c-0.118-0.24-0.237-0.357-0.475-0.714l0.475-0.118c0.12,0.118,0.237,0.239,0.237,0.475c0.12-0.235,0.237-0.357,0.475-0.475h0.474   c0.12,0-0.354,0.353-0.592,0.949c0.354,0.832,0.592,2.017,0.237,2.849c0.117,0.118,0.354,0.357,0.592,0.597h-0.592   c-0.12,0-0.237-0.122-0.237-0.239C18.367,12.521,18.247,12.634,17.892,12.756L17.892,12.756z M18.484,11.332   c0.12-0.357,0.12-0.832,0-1.189c0-0.357-0.118-0.475-0.118-0.593C18.129,10.025,18.129,10.622,18.484,11.332L18.484,11.332z" fill-rule="evenodd"/><path clip-rule="evenodd" d="M5.426,17.979c0,0-0.237-0.24-0.712-0.475c-0.949,0.357-2.136,0.235-2.966-0.475   c-0.12,0-0.356,0.118-0.832,0.239l0.12-0.479c0.118,0,0.237-0.114,0.475-0.114c-0.119-0.122-0.237-0.357-0.357-0.479l0.12-0.47   c0-0.122,0.237,0.353,0.712,0.828c0.95-0.236,2.137-0.118,2.849,0.357c0.238-0.122,0.475-0.235,0.712-0.357l-0.12,0.592   c-0.118,0-0.118,0.122-0.237,0.122C5.309,17.503,5.426,17.739,5.426,17.979L5.426,17.979z M4.239,17.146   c-0.355-0.235-0.83-0.357-1.187-0.357c-0.355,0-0.475,0-0.712,0.122C2.815,17.146,3.41,17.386,4.239,17.146L4.239,17.146z" fill-rule="evenodd"/><path clip-rule="evenodd" d="M27.507,29.142c0.95,0.113,1.662,0.471,1.899,1.063l0,0   c0.118,0,0.118,0.122,0.118,0.122c6.292,12.823,11.279,24.692,25.879,13.297c2.849-2.138,3.798,5.223,3.798,5.223   c1.542,4.272-18.873,18.163-34.187-6.412l-4.51-8.667l0,0l0,0l0,0c0,0,0-0.118-0.12-0.235c-0.118-0.475,0-1.067,0.475-1.542   l0.237,0.353c-0.118,0.357-0.118,0.714,0,0.95c0.12,0.475,0.949,0.714,1.899,0.596c0.238,0,0.475,0,0.712,0   c0.475-0.122,1.069-0.357,1.664-0.596c0.593-0.235,0.83-0.285,1.542-0.828s1.069-0.95,1.307-1.424   c0.118-0.357,0.238-0.596,0.118-0.949c-0.118-0.24-0.475-0.479-0.83-0.597V29.142z M21.69,34.364   c4.748,1.424,7.122-2.496,7.242-3.324l0,0C28.932,34.6,23.944,35.906,21.69,34.364L21.69,34.364z" fill-rule="evenodd" opacity="0.7"/></g></svg>