<?xml version="1.0" ?><!DOCTYPE svg  PUBLIC '-//W3C//DTD SVG 1.1//EN'  'http://www.w3.org/Graphics/SVG/1.1/DTD/svg11.dtd'><svg enable-background="new 0 0 512 512" height="512px" id="Layer_1" version="1.1" viewBox="0 0 512 512" width="512px" xml:space="preserve" xmlns="http://www.w3.org/2000/svg" xmlns:xlink="http://www.w3.org/1999/xlink"><g><path clip-rule="evenodd" d="M491.435,168.94L289.71,269.603   c-14.199,7.263-20.854,18.439-20.854,36.579v187.133c0,11.188,10.583,16.322,20.854,11.188l202.324-101.278   c14.22-6.953,19.966-19.35,19.966-34.762V180.727C512,169.24,501.707,163.801,491.435,168.94L491.435,168.94z M20.865,168.635   L222.28,269.303c14.209,7.252,21.165,18.439,21.165,36.579v187.133c0,11.488-10.882,16.322-20.865,11.178L19.956,403.225   C6.046,396.272,0,383.577,0,368.165V180.727C0,169.24,10.582,163.496,20.865,168.635L20.865,168.635z M68.95,93.664   c0.3,16.931,29.639,30.835,65.623,30.835c36.593,0,65.932-13.904,65.932-31.141v34.467c0,17.23-29.339,31.135-65.932,31.135   c-36.284,0-65.623-13.905-65.623-31.135V93.664v-0.305c0-16.626,27.82-30.531,62.904-31.135l59.577-29.927   c3.028-7.562,11.792-14.209,24.492-19.049c6.355-2.112,13.91-3.925,21.774-5.139c0.909,0,2.118-0.299,3.328-0.299   c0.299,0,0.609-0.305,0.909-0.305h0.3l0,0l0.3-0.3h0.609l0,0h0.3l0,0l0.61-0.305l0,0h0.3l0,0   c6.955-1.813,15.419-1.813,22.684-0.299l0,0h0.31l0,0l0.29,0.299l0,0h0.62l0,0h0.289l0,0l0.6,0.305l0,0h0.31l0,0h0.311l0.599,0.3   l0,0h0.311l0,0l0.889,0.305c25.422,2.722,44.768,12.396,49.604,24.488l59.587,29.927c35.074,0.909,62.895,14.208,62.895,31.135   v0.305l53.531,26.905c9.983,4.839,10.272,13,0.6,18.14h-0.6L274.602,250.26h-0.31c-9.983,4.84-26.012,4.84-35.984,0h-0.31   L15.119,138.709h-0.3c-9.673-5.14-9.673-13.301,0.3-18.14L68.95,93.664z M443.65,93.664v34.162   c0,17.23-29.329,31.135-65.933,31.135c-36.294,0-65.622-13.905-65.622-31.135V93.359c0,17.236,29.328,31.141,65.622,31.141   S443.339,110.595,443.65,93.664L443.65,93.664z M190.522,38.04c0,17.231,29.339,31.135,65.623,31.135   c36.604,0,65.933-13.904,65.933-31.135v34.461c0,1.514-0.31,3.327-0.909,4.835c-4.237,3.326-6.945,6.958-8.164,10.888   c-11.492,9.065-32.656,15.113-56.859,15.113c-23.893,0-45.057-6.048-56.549-14.813c-1.209-4.23-4.237-7.861-8.464-11.188   c-0.31-1.508-0.61-3.321-0.61-4.835V38.04z M190.522,152.613c0,17.231,29.339,31.141,65.623,31.141   c36.604,0,65.933-13.91,65.933-31.141v34.462c0,17.236-29.328,31.141-65.933,31.141c-36.283,0-65.623-13.905-65.623-31.141V152.613   z" fill="#050505" fill-rule="evenodd"/></g></svg>