<?xml version="1.0" ?><!DOCTYPE svg  PUBLIC '-//W3C//DTD SVG 1.1//EN'  'http://www.w3.org/Graphics/SVG/1.1/DTD/svg11.dtd'><svg enable-background="new 0 0 512 512" height="512px" id="Layer_1" version="1.1" viewBox="0 0 512 512" width="512px" xml:space="preserve" xmlns="http://www.w3.org/2000/svg" xmlns:xlink="http://www.w3.org/1999/xlink"><g><path d="M448,48v64H64V48C28.656,48,0,76.656,0,112v304c0,35.344,28.656,64,64,64h384c35.344,0,64-28.656,64-64V112   C512,76.656,483.344,48,448,48z M448,448H64c-17.672,0-32-14.328-32-32s14.328-32,32-32V144h384v240c17.672,0,32,14.328,32,32   S465.672,448,448,448z M416,176v240H96V176h192v16h-64v32h-16v-32h-96v96h96v-32h16v80h-16v-32h-96v96h96v-32h16v32h32V288h64v16   h-48v96h128v-96h-48v-16h48v-96h-80v-16H416z" fill="#4D4D4D"/></g></svg>